<?xml version="1.0" standalone="no"?>
<!DOCTYPE svg PUBLIC "-//W3C//DTD SVG 20010904//EN"
 "http://www.w3.org/TR/2001/REC-SVG-20010904/DTD/svg10.dtd">
<svg version="1.0" xmlns="http://www.w3.org/2000/svg"
 width="500.000000pt" height="500.000000pt" viewBox="0 0 500.000000 500.000000"
 preserveAspectRatio="xMidYMid meet">

<g transform="translate(0.000000,500.000000) scale(0.100000,-0.100000)"
fill="#000000" stroke="none">
<path d="M2613 4648 c-26 -28 -100 -94 -163 -148 -63 -53 -150 -134 -194 -180
l-78 -82 -71 28 c-38 16 -88 42 -110 59 -22 16 -46 34 -53 40 -35 26 -184 -89
-276 -212 -46 -64 -84 -103 -116 -123 -130 -79 -272 -219 -350 -344 -30 -46
-56 -94 -59 -105 -9 -34 23 -25 38 11 54 131 232 321 391 418 30 19 70 60 116
122 69 91 111 132 183 176 42 26 49 27 49 8 0 -7 -16 -26 -35 -40 -51 -39 -79
-70 -155 -171 -97 -131 -189 -225 -293 -303 -92 -69 -118 -102 -220 -277 -7
-11 -19 -31 -28 -45 -25 -38 -33 -70 -17 -70 7 0 28 28 47 63 19 34 61 103 93
154 50 78 72 101 147 157 97 72 210 191 318 336 61 82 118 140 138 140 3 0 5
-22 5 -50 0 -46 -2 -51 -42 -79 -51 -35 -98 -84 -160 -166 -25 -33 -55 -69
-67 -79 -23 -21 -29 -50 -8 -44 6 3 36 34 65 69 30 35 71 85 93 111 22 26 56
60 75 75 42 31 54 22 54 -42 0 -38 -5 -45 -75 -108 -41 -37 -96 -96 -121 -130
-26 -34 -91 -107 -145 -163 -72 -73 -106 -117 -128 -165 -22 -45 -60 -95 -131
-171 -66 -70 -96 -109 -88 -114 13 -9 214 197 224 230 17 56 55 108 143 200
54 56 119 129 144 163 46 60 208 213 226 213 22 0 118 89 226 210 65 73 159
167 209 209 50 42 123 107 163 144 39 38 76 66 81 63 5 -3 12 -17 14 -30 4
-20 -12 -41 -96 -124 -56 -55 -126 -117 -156 -139 -30 -22 -73 -59 -95 -82
-22 -23 -119 -112 -215 -197 -195 -174 -233 -213 -260 -264 -10 -19 -63 -83
-117 -142 -54 -58 -122 -146 -152 -193 -30 -48 -81 -113 -114 -144 -91 -86
-191 -211 -180 -222 7 -7 34 19 81 74 39 46 95 106 124 133 29 27 82 94 119
149 36 55 107 145 158 200 51 55 101 115 111 135 21 39 80 98 290 287 80 72
163 150 185 173 22 23 65 59 95 80 30 21 93 77 140 124 46 47 87 86 91 86 4 0
9 -14 13 -30 5 -28 -4 -40 -124 -162 -72 -72 -128 -133 -125 -136 12 -13 65
30 155 126 89 94 98 101 104 80 13 -49 7 -75 -21 -94 -30 -19 -493 -478 -493
-488 0 -27 60 26 267 232 l238 237 3 -53 c3 -53 2 -55 -55 -119 -32 -35 -77
-90 -101 -121 -24 -32 -88 -102 -141 -157 -104 -106 -201 -220 -201 -236 0
-24 29 -4 65 43 22 29 90 105 150 168 61 63 134 144 162 180 28 36 69 82 91
103 l39 39 13 -68 13 -67 -136 -131 c-92 -88 -155 -159 -193 -216 -31 -47 -80
-110 -109 -140 -70 -74 -107 -125 -139 -187 -34 -69 -135 -222 -181 -275 -19
-23 -39 -57 -44 -75 -5 -18 -35 -61 -66 -96 -81 -89 -178 -238 -164 -251 8 -8
14 -6 23 7 58 95 111 168 164 226 35 40 65 83 68 100 4 17 22 48 41 70 41 49
137 193 182 276 42 77 89 140 141 190 23 22 71 84 108 138 48 71 99 129 186
210 113 106 119 110 113 78 -4 -18 -29 -70 -56 -115 -27 -44 -62 -108 -79
-141 -18 -36 -57 -85 -96 -123 -101 -98 -283 -362 -390 -568 -27 -50 -70 -120
-98 -155 -27 -35 -62 -83 -77 -107 -16 -23 -41 -52 -55 -63 -28 -22 -56 -68
-56 -94 0 -25 17 -17 30 15 7 17 29 44 48 60 19 16 44 44 56 63 11 19 45 65
73 103 29 38 73 107 98 154 95 179 273 444 357 534 l48 51 -31 -75 c-102 -246
-196 -423 -277 -526 -22 -28 -42 -67 -46 -89 -6 -32 -25 -58 -92 -127 -46 -48
-84 -92 -84 -99 0 -6 -13 -31 -30 -56 -16 -24 -30 -48 -30 -54 0 -32 50 21 85
91 10 19 51 69 92 112 58 59 77 86 84 118 5 23 29 68 52 99 83 108 155 243
252 471 64 151 143 310 204 415 23 38 44 84 47 102 l6 33 65 -70 c35 -38 73
-80 83 -92 13 -16 22 -20 29 -12 8 7 -8 32 -56 86 -112 125 -116 131 -130 188
-8 30 -17 123 -20 205 l-5 150 32 -37 c17 -21 38 -38 46 -38 19 0 18 14 -2 31
-22 18 -84 114 -84 129 0 8 -7 42 -16 78 -9 35 -14 65 -11 68 7 7 92 -32 154
-72 32 -20 101 -78 153 -128 52 -51 124 -114 160 -141 120 -91 180 -148 432
-412 137 -145 254 -263 259 -263 25 0 -8 40 -197 239 -266 279 -346 356 -474
455 -57 44 -132 109 -165 144 -74 78 -163 143 -247 181 -100 45 -100 45 -155
-11z m-570 -388 c3 0 31 -12 62 -26 l58 -25 -58 -59 c-32 -33 -77 -73 -101
-89 l-42 -31 -6 31 c-11 58 -8 71 13 59 11 -5 27 -10 35 -10 28 0 17 20 -19
37 l-35 17 0 78 0 79 44 -31 c25 -16 47 -30 49 -30z"/>
<path d="M3180 4237 c0 -18 151 -177 168 -177 6 0 12 3 12 6 0 9 -163 184
-172 184 -4 0 -8 -6 -8 -13z"/>
<path d="M2353 4144 c-21 -25 -63 -63 -94 -85 -31 -21 -83 -69 -115 -106 -33
-37 -107 -115 -165 -173 -115 -114 -152 -163 -202 -268 -43 -90 -56 -107 -193
-259 -110 -123 -214 -259 -214 -282 0 -26 22 -5 81 77 35 48 86 110 114 137
88 87 197 227 226 292 47 105 98 174 208 283 58 58 133 136 166 174 32 38 82
84 110 101 44 29 145 132 145 149 0 20 -35 -1 -67 -40z"/>
<path d="M1553 3770 c-37 -43 -39 -50 -19 -50 15 0 76 64 76 80 0 21 -27 8
-57 -30z"/>
<path d="M2128 3783 c-8 -10 -42 -59 -75 -108 -33 -50 -81 -115 -107 -145 -54
-63 -142 -194 -176 -260 -12 -25 -39 -61 -60 -82 -46 -45 -250 -304 -250 -318
0 -29 33 2 105 97 44 58 113 141 153 184 39 43 72 84 72 90 0 20 110 187 172
262 62 74 198 272 198 288 0 15 -16 10 -32 -8z"/>
<path d="M1428 3653 c-20 -27 -53 -79 -74 -118 -21 -38 -67 -103 -102 -143
-45 -50 -62 -76 -55 -83 14 -14 138 123 164 181 11 23 44 78 74 120 48 69 56
90 35 90 -3 0 -22 -21 -42 -47z"/>
<path d="M3310 3638 c0 -16 51 -68 67 -68 21 0 15 14 -20 48 -35 34 -47 39
-47 20z"/>
<path d="M3410 3552 c0 -14 191 -182 207 -182 26 0 11 19 -83 101 -92 81 -124
102 -124 81z"/>
<path d="M2068 3447 c-42 -56 -102 -140 -133 -187 -32 -47 -130 -176 -217
-288 -104 -132 -157 -207 -151 -213 12 -12 295 337 393 486 37 55 97 140 134
190 36 49 66 93 66 97 0 28 -27 3 -92 -85z"/>
<path d="M2620 3370 c0 -10 9 -24 20 -30 10 -6 28 -30 39 -55 19 -43 30 -53
44 -39 15 15 -70 144 -95 144 -4 0 -8 -9 -8 -20z"/>
<path d="M2560 3365 c0 -3 14 -24 30 -47 17 -22 30 -44 30 -48 0 -15 71 -125
85 -133 28 -16 36 4 13 32 -13 15 -34 47 -48 70 -66 111 -81 131 -95 131 -8 0
-15 -2 -15 -5z"/>
<path d="M3280 3016 c0 -8 14 -19 33 -24 17 -5 53 -29 78 -53 72 -68 109 -93
121 -81 6 6 -3 19 -29 38 -21 16 -56 47 -78 70 -22 23 -51 44 -65 48 -14 4
-33 10 -42 12 -12 4 -18 0 -18 -10z"/>
<path d="M2480 2751 c0 -6 5 -13 11 -17 6 -3 22 -29 34 -57 30 -64 96 -157
113 -157 21 0 13 21 -23 66 -20 24 -43 60 -53 81 -26 57 -53 93 -68 93 -8 0
-14 -4 -14 -9z"/>
<path d="M1283 2148 c-13 -21 -3 -1062 10 -1070 7 -4 44 -8 83 -8 56 0 73 3
78 16 3 9 6 64 6 123 l0 107 64 104 c35 58 68 104 72 104 5 -1 23 -40 40 -85
71 -195 106 -286 121 -321 l16 -38 89 0 c48 0 88 4 88 9 0 15 -89 267 -133
376 -22 55 -52 139 -67 187 l-28 87 77 133 c42 73 96 163 119 199 23 36 42 71
42 78 0 8 -28 11 -97 9 l-98 -3 -120 -196 c-66 -108 -135 -218 -152 -245 l-33
-49 -1 65 c-1 36 -4 146 -8 245 l-6 180 -77 3 c-54 2 -79 -1 -85 -10z m449
-245 l-100 -165 23 -66 c12 -37 64 -169 114 -295 50 -125 91 -229 91 -232 0
-3 -6 -5 -14 -5 -8 0 -20 17 -26 38 -7 20 -47 123 -90 227 -42 105 -85 214
-94 243 -10 28 -21 52 -26 52 -4 0 -34 -42 -66 -92 -31 -51 -81 -129 -110
-173 l-54 -81 0 -112 c0 -68 -4 -112 -10 -112 -5 0 -11 6 -11 13 -4 29 3 942
7 946 15 15 18 -47 15 -347 l-2 -337 93 140 c92 137 237 366 314 495 27 46 40
60 42 47 2 -10 -40 -91 -96 -184z"/>
<path d="M2350 2152 l-25 -8 2 -528 c1 -336 5 -532 11 -538 14 -14 134 -21
152 -9 21 15 26 104 19 361 -4 124 -7 331 -8 460 -1 129 -5 241 -10 249 -10
16 -102 24 -141 13z m80 -355 c0 -156 3 -366 7 -465 6 -165 5 -182 -10 -182
-15 0 -17 21 -17 208 0 115 -3 324 -7 465 -6 235 -5 257 10 257 15 0 17 -26
17 -283z"/>
<path d="M2912 2145 l-22 -16 6 -506 c3 -284 9 -514 14 -524 8 -14 30 -18 117
-24 255 -18 438 18 519 100 61 62 88 126 92 215 6 126 -43 246 -118 285 l-30
15 40 36 c43 39 80 122 80 178 0 69 -28 132 -79 178 -77 69 -119 78 -377 78
-182 0 -223 -3 -242 -15z m452 -55 c46 -10 110 -53 139 -92 25 -34 34 -122 17
-172 -16 -50 -53 -91 -111 -123 -27 -16 -49 -30 -49 -33 0 -3 21 -13 48 -22
55 -21 119 -78 139 -126 17 -42 19 -133 4 -189 -14 -51 -65 -121 -107 -145
-48 -28 -126 -39 -292 -40 -105 0 -157 3 -165 11 -8 8 -12 59 -13 149 0 75 -2
278 -4 450 -2 179 1 317 6 321 5 5 18 11 29 14 36 9 319 7 359 -3z"/>
<path d="M3085 2071 c-38 -3 -75 -9 -80 -13 -14 -8 -10 -357 3 -370 6 -6 65
-9 154 -6 135 3 147 5 209 35 87 41 121 84 127 162 5 71 -13 110 -69 151 -41
29 -67 35 -209 43 -36 3 -96 2 -135 -2z m292 -86 c60 -40 66 -129 11 -191 -38
-43 -79 -54 -210 -54 l-108 0 0 130 0 129 88 4 c119 5 192 -1 219 -18z"/>
<path d="M3090 1870 l0 -110 45 0 45 0 0 65 0 65 110 0 c102 0 110 1 110 19 0
11 -14 31 -31 45 -29 25 -36 26 -155 26 l-124 0 0 -110z"/>
<path d="M3080 1650 l-75 -5 1 -228 c1 -125 5 -231 9 -235 11 -12 185 -14 278
-4 117 13 170 44 211 125 37 72 42 173 10 228 -23 40 -100 95 -152 108 -47 12
-185 17 -282 11z m285 -74 c64 -19 107 -108 89 -184 -9 -37 -57 -105 -89 -126
-31 -21 -181 -39 -242 -30 l-43 6 0 174 0 173 38 4 c54 6 201 -4 247 -17z"/>
<path d="M3100 1416 l0 -156 45 0 45 0 0 111 0 111 119 -3 118 -4 -10 29 c-15
43 -63 59 -199 64 l-118 4 0 -156z"/>
<path d="M1476 2033 c-3 -32 -2 -110 2 -173 l7 -115 38 60 c32 51 37 69 39
125 5 149 2 160 -54 160 -25 0 -26 -3 -32 -57z"/>
<path d="M1916 2023 c-24 -38 -58 -95 -76 -128 -18 -33 -46 -81 -63 -108 -35
-56 -37 -46 45 -262 103 -274 149 -415 146 -443 -3 -26 -5 -27 -75 -30 -41 -2
-73 -7 -73 -13 0 -19 29 -67 45 -73 21 -8 158 -8 179 0 9 3 16 16 16 29 0 26
-58 196 -135 400 -29 77 -61 165 -70 196 l-17 55 47 85 c27 46 81 137 121 203
86 139 87 156 3 156 l-49 0 -44 -67z"/>
<path d="M2526 2081 c-3 -5 -3 -141 0 -302 4 -162 7 -385 8 -495 1 -185 -1
-204 -18 -223 -14 -16 -31 -21 -68 -21 l-49 0 3 -32 c4 -42 35 -58 116 -58 86
0 97 13 106 121 4 46 3 194 -3 329 -5 135 -10 333 -10 440 -1 107 -4 202 -6
211 -3 9 -17 21 -31 27 -30 14 -41 15 -48 3z"/>
<path d="M3615 2015 c4 -11 10 -50 12 -88 7 -79 -12 -139 -60 -194 l-30 -34
39 -42 c21 -23 40 -44 42 -46 6 -12 57 49 78 94 46 96 28 208 -44 284 -25 26
-41 38 -37 26z"/>
<path d="M3643 1543 c31 -89 26 -209 -13 -288 -42 -87 -99 -137 -190 -168
-105 -36 -206 -47 -348 -40 -118 6 -122 5 -122 -14 0 -12 8 -30 18 -42 15 -18
34 -21 159 -30 186 -12 280 -2 405 45 73 28 115 66 164 150 48 81 46 247 -4
349 -15 31 -71 95 -82 95 -4 0 2 -26 13 -57z"/>
<path d="M1573 1454 c-11 -16 -36 -57 -56 -92 -36 -62 -37 -65 -37 -168 0
-135 -5 -144 -75 -144 l-55 0 0 -35 c0 -46 20 -55 119 -55 100 0 101 2 101
145 0 104 1 108 35 166 19 33 35 65 35 72 0 7 -11 41 -24 76 l-23 63 -20 -28z"/>
<path d="M670 625 l0 -145 28 -1 c16 -1 20 -3 10 -6 -29 -7 -21 -25 10 -21 20
2 28 9 30 28 9 78 24 91 42 35 9 -27 17 -35 35 -35 13 0 26 6 28 13 4 9 6 9 6
-1 1 -8 -8 -16 -19 -19 -30 -8 -24 -23 10 -23 17 0 30 3 30 7 0 4 -14 44 -31
90 l-31 84 31 54 c36 64 37 69 12 62 -14 -3 -18 -1 -14 9 4 10 -3 14 -21 14
-21 0 -33 -10 -56 -46 l-29 -47 6 37 c4 29 2 36 -11 36 -9 0 -16 5 -16 10 0 6
-11 10 -25 10 l-25 0 0 -145z"/>
<path d="M919 768 c-1 -7 -2 -189 -1 -235 2 -50 3 -53 30 -54 16 -1 20 -3 10
-6 -29 -7 -21 -25 10 -21 26 3 27 5 26 63 -3 232 -4 235 -19 235 -8 0 -15 5
-15 10 0 8 -39 15 -41 8z m28 -220 c-3 -8 -6 -5 -6 6 -1 11 2 17 5 13 3 -3 4
-12 1 -19z"/>
<path d="M1037 763 c-2 -5 -2 -70 1 -145 l5 -138 61 -2 61 -1 -55 -7 c-75 -8
-41 -24 41 -18 47 3 65 10 84 29 34 35 37 99 6 125 -18 16 -18 17 1 36 26 26
17 64 -23 101 -27 24 -37 27 -104 27 -41 0 -76 -3 -78 -7z m111 -40 c-10 -2
-28 -2 -40 0 -13 2 -5 4 17 4 22 1 32 -1 23 -4z m-61 -45 c-3 -7 -5 -2 -5 12
0 14 2 19 5 13 2 -7 2 -19 0 -25z m93 18 c0 -3 -7 -12 -16 -20 -22 -23 -54
-20 -54 4 0 16 7 20 35 20 19 0 35 -2 35 -4z m-32 -83 c-10 -2 -28 -2 -40 0
-13 2 -5 4 17 4 22 1 32 -1 23 -4z m36 -31 c3 -5 -2 -18 -10 -30 -18 -26 -70
-31 -60 -6 3 9 6 22 6 30 0 15 55 20 64 6z m-109 -72 c3 -5 1 -10 -4 -10 -6 0
-11 5 -11 10 0 6 2 10 4 10 3 0 8 -4 11 -10z m136 -10 c-13 -11 -28 -20 -35
-20 -6 0 3 9 19 19 39 25 46 25 16 1z"/>
<path d="M1357 763 c-6 -9 -77 -266 -77 -276 0 -4 12 -8 28 -8 16 -1 20 -3 10
-6 -27 -7 -21 -23 8 -23 18 0 28 6 31 20 5 18 12 20 64 18 46 -2 56 -5 44 -14
-22 -16 -18 -24 11 -24 31 0 32 -9 -20 169 -33 116 -52 150 -83 151 -6 0 -14
-3 -16 -7z m43 -193 c0 -5 -5 -10 -11 -10 -5 0 -7 5 -4 10 3 6 8 10 11 10 2 0
4 -4 4 -10z m14 -58 c2 -4 -13 -6 -35 -4 -21 2 -39 6 -39 8 0 7 69 4 74 -4z"/>
<path d="M1524 757 c-2 -7 -2 -62 0 -122 3 -61 5 -121 5 -134 1 -20 5 -23 28
-18 24 4 26 4 10 -8 -24 -17 -21 -25 8 -25 23 0 24 3 27 77 l3 78 45 -62 c36
-49 51 -62 72 -63 14 0 29 5 31 10 3 6 4 5 3 -2 -1 -7 -13 -15 -27 -19 -20 -5
-21 -7 -7 -13 9 -4 25 -6 35 -4 16 3 18 18 21 151 2 126 0 147 -13 147 -8 0
-15 5 -15 10 0 6 -11 10 -25 10 -25 0 -25 0 -25 -97 l0 -98 -21 35 c-12 19
-25 37 -30 38 -5 2 -9 8 -9 13 0 11 -36 63 -62 91 -21 21 -46 24 -54 5z m42
-29 c4 -7 3 -8 -4 -4 -7 4 -12 0 -12 -10 0 -10 -3 -15 -6 -11 -7 6 2 37 10 37
3 0 8 -5 12 -12z m25 -105 c13 -16 12 -17 -3 -4 -17 13 -22 21 -14 21 2 0 10
-8 17 -17z m136 -50 c-3 -10 -5 -4 -5 12 0 17 2 24 5 18 2 -7 2 -21 0 -30z m3
-58 c0 -8 -4 -15 -10 -15 -5 0 -7 7 -4 15 4 8 8 15 10 15 2 0 4 -7 4 -15z"/>
<path d="M1871 738 c-5 -18 -22 -78 -37 -133 -14 -55 -29 -106 -32 -114 -4
-10 2 -13 26 -9 17 2 29 1 26 -4 -3 -4 -12 -8 -20 -8 -8 0 -12 -4 -9 -10 11
-18 52 -11 58 9 4 18 67 36 67 19 0 -4 12 -9 28 -9 16 -1 20 -3 10 -6 -26 -7
-22 -23 5 -23 13 0 26 2 29 5 9 10 -75 280 -93 298 -27 26 -46 21 -58 -15z
m46 -170 c-3 -7 -5 -2 -5 12 0 14 2 19 5 13 2 -7 2 -19 0 -25z m6 -55 c-13 -2
-33 -2 -45 0 -13 2 -3 4 22 4 25 0 35 -2 23 -4z"/>
<path d="M2180 756 c0 -8 21 -74 47 -146 45 -127 47 -132 72 -127 23 5 24 4 8
-8 -24 -17 -21 -25 8 -25 22 0 27 10 70 141 25 77 45 145 45 150 0 5 -7 9 -15
9 -8 0 -15 5 -15 10 0 6 -11 10 -25 10 -22 0 -27 -8 -46 -75 -12 -41 -25 -75
-29 -75 -3 0 -14 26 -24 58 -10 31 -27 65 -37 75 -22 21 -59 23 -59 3z"/>
<path d="M2452 628 c3 -142 3 -142 28 -149 14 -4 19 -7 13 -8 -24 -2 -13 -21
12 -21 l25 0 0 150 c0 86 -4 150 -9 150 -5 0 -12 -10 -14 -22 -3 -17 -5 -14
-6 10 -1 27 -5 32 -26 32 l-26 0 3 -142z"/>
<path d="M2602 747 c-14 -15 -22 -36 -22 -60 0 -31 5 -41 31 -56 17 -10 30
-23 29 -27 -1 -5 17 -13 39 -18 42 -10 50 -23 29 -44 -20 -20 -48 -13 -78 19
-30 34 -60 34 -60 1 0 -23 44 -83 73 -99 67 -37 157 12 157 87 0 34 -58 89
-107 101 -46 12 -51 27 -15 45 12 6 21 13 19 15 -1 2 8 -8 21 -23 26 -31 72
-39 72 -12 0 9 -17 34 -39 55 -33 34 -45 39 -83 39 -34 0 -50 -6 -66 -23z
m119 -14 c13 -17 13 -17 -6 -3 -11 8 -22 16 -24 17 -2 2 0 3 6 3 6 0 17 -8 24
-17z m-41 -7 c0 -2 -11 -6 -25 -8 -13 -3 -22 -1 -19 3 5 9 44 13 44 5z m85
-36 c-3 -5 -12 -10 -18 -10 -7 0 -6 4 3 10 19 12 23 12 15 0z m-88 -86 c-3 -3
-12 -4 -19 -1 -8 3 -5 6 6 6 11 1 17 -2 13 -5z m100 -46 c-3 -7 -5 -2 -5 12 0
14 2 19 5 13 2 -7 2 -19 0 -25z m-37 -22 c0 -2 -8 -10 -17 -17 -16 -13 -17
-12 -4 4 13 16 21 21 21 13z m20 -20 c0 -2 -8 -10 -17 -17 -16 -13 -17 -12 -4
4 13 16 21 21 21 13z m-93 -12 c-3 -3 -12 -4 -19 -1 -8 3 -5 6 6 6 11 1 17 -2
13 -5z m43 -24 c-8 -5 -28 -9 -45 -9 -30 2 -30 2 5 9 51 11 57 11 40 0z"/>
<path d="M2830 666 c0 -118 7 -144 50 -186 49 -48 118 -40 148 17 14 26 16
239 3 248 -5 3 -12 -7 -14 -22 -3 -23 -4 -21 -6 10 -1 32 -4 37 -26 37 l-25 0
0 -104 c0 -118 -4 -136 -31 -136 -17 0 -19 9 -19 98 0 108 -14 142 -59 142
-20 0 -21 -5 -21 -104z m27 -43 c-3 -10 -5 -2 -5 17 0 19 2 27 5 18 2 -10 2
-26 0 -35z m160 -65 c-3 -7 -5 -2 -5 12 0 14 2 19 5 13 2 -7 2 -19 0 -25z
m-74 -55 c-7 -2 -19 -2 -25 0 -7 3 -2 5 12 5 14 0 19 -2 13 -5z m47 -8 c-7 -8
-17 -15 -23 -15 -6 0 -2 7 9 15 25 19 30 19 14 0z m-52 -22 c-10 -2 -26 -2
-35 0 -10 3 -2 5 17 5 19 0 27 -2 18 -5z"/>
<path d="M3096 640 c-43 -152 -43 -160 -13 -161 12 0 16 -3 10 -6 -22 -8 -14
-23 11 -23 15 0 27 7 31 19 6 19 65 36 65 18 0 -5 13 -7 29 -5 17 2 28 1 25
-4 -3 -4 -12 -8 -20 -8 -8 0 -12 -4 -9 -10 6 -10 55 -14 55 -5 0 28 -87 284
-101 298 -36 34 -45 22 -83 -113z m64 -21 c0 -6 -4 -7 -10 -4 -5 3 -10 11 -10
16 0 6 5 7 10 4 6 -3 10 -11 10 -16z m7 -51 c-3 -7 -5 -2 -5 12 0 14 2 19 5
13 2 -7 2 -19 0 -25z m23 -52 c0 -2 -18 -6 -40 -8 -22 -2 -40 0 -40 4 0 5 18
8 40 8 22 0 40 -2 40 -4z"/>
<path d="M3300 624 l0 -146 69 4 c38 2 67 0 64 -4 -2 -5 -29 -8 -59 -8 -34 0
-53 -4 -49 -10 3 -6 35 -10 71 -10 60 0 64 1 64 23 0 27 -32 57 -60 57 -19 0
-20 7 -20 103 0 90 -2 105 -20 120 -11 9 -29 17 -40 17 -19 0 -20 -7 -20 -146z
m27 89 c-3 -10 -5 -4 -5 12 0 17 2 24 5 18 2 -7 2 -21 0 -30z m30 -165 c-2
-13 -4 -5 -4 17 -1 22 1 32 4 23 2 -10 2 -28 0 -40z"/>
<path d="M3492 628 c3 -138 4 -143 25 -146 14 -2 23 3 26 15 4 17 5 17 6 0 0
-10 -6 -20 -14 -23 -24 -9 -17 -24 10 -24 l25 0 0 144 c0 166 -17 212 -23 59
l-3 -98 -2 108 -2 107 -25 0 -26 0 3 -142z"/>
<path d="M3610 750 c0 -17 7 -20 43 -22 36 -1 38 -2 10 -5 -41 -5 -43 -21 -4
-25 l30 -3 -40 -84 c-21 -46 -39 -95 -39 -108 0 -24 1 -24 84 -21 46 2 82 0
79 -4 -2 -5 -35 -8 -74 -8 -39 0 -69 -4 -69 -10 0 -6 35 -10 85 -10 78 0 85 2
85 20 0 30 -31 60 -61 60 l-28 0 40 91 c42 96 48 129 24 129 -8 0 -15 5 -15
10 0 6 -32 10 -75 10 -68 0 -75 -2 -75 -20z m71 -143 c-10 -9 -11 -8 -5 6 3
10 9 15 12 12 3 -3 0 -11 -7 -18z m62 -104 c-7 -2 -21 -2 -30 0 -10 3 -4 5 12
5 17 0 24 -2 18 -5z"/>
<path d="M3837 763 c-2 -5 -2 -70 1 -145 l4 -138 97 -2 96 -2 -87 -3 c-50 -2
-88 -8 -88 -14 0 -6 37 -9 98 -7 94 3 97 4 100 27 3 18 0 22 -12 18 -10 -4
-16 -1 -16 8 0 12 -14 15 -58 15 l-58 0 4 40 4 40 54 0 c40 0 56 4 61 16 10
27 -31 54 -82 54 -33 0 -45 4 -45 15 0 11 16 15 68 17 61 3 67 5 70 26 4 25
-13 30 -22 7 -4 -12 -21 -15 -73 -13 l-68 2 68 3 c59 3 67 6 67 23 0 18 -7 20
-89 20 -50 0 -92 -3 -94 -7z m30 -125 c-3 -8 -6 -5 -6 6 -1 11 2 17 5 13 3 -3
4 -12 1 -19z m126 -15 c-13 -2 -35 -2 -50 0 -16 2 -5 4 22 4 28 0 40 -2 28 -4z
m-126 -95 c-2 -18 -4 -6 -4 27 0 33 2 48 4 33 2 -15 2 -42 0 -60z"/>
<path d="M4092 628 l3 -143 28 0 c24 1 26 -1 13 -11 -23 -16 -20 -24 9 -24 22
0 25 4 25 39 0 26 5 41 16 45 8 3 12 10 9 16 -3 5 -4 10 -2 10 2 0 17 -18 31
-41 24 -35 32 -40 56 -37 16 2 27 1 24 -4 -3 -4 -14 -8 -25 -8 -11 0 -17 -4
-14 -10 3 -5 19 -10 36 -10 34 0 38 19 9 45 -30 28 -33 51 -10 83 14 18 21 44
22 72 0 39 -4 48 -40 82 -40 37 -43 38 -117 38 l-76 0 3 -142z m65 125 l-37
-4 1 -121 c0 -66 -2 -122 -5 -126 -3 -3 -6 51 -6 120 0 68 3 128 7 131 3 4 22
6 42 5 l36 -1 -38 -4z m-10 -120 c-2 -21 -4 -6 -4 32 0 39 2 55 4 38 2 -18 2
-50 0 -70z m98 27 c-8 -30 -22 -46 -52 -55 -22 -6 -23 -4 -23 44 0 50 0 51 31
51 21 0 28 4 24 13 -4 6 1 3 10 -8 10 -13 14 -29 10 -45z m32 8 c-3 -8 -6 -5
-6 6 -1 11 2 17 5 13 3 -3 4 -12 1 -19z m-48 -100 c13 -22 13 -22 -5 -7 -10 9
-26 19 -34 22 -11 4 -9 6 5 6 11 1 26 -9 34 -21z"/>
</g>
</svg>
